<svg width="24" height="24" viewBox="0 0 24 24" fill="none" xmlns="http://www.w3.org/2000/svg">
<g clip-path="url(#clip0_2645_3573)">
<path d="M7.61605 8.712L10.821 6.384C11.1808 6.1207 11.6184 5.98551 12.064 6C12.6076 6.01355 13.1333 6.19611 13.5683 6.52228C14.0033 6.84846 14.3258 7.30205 14.491 7.82C14.677 8.403 14.847 8.797 15.001 9.002C15.4664 9.6228 16.07 10.1266 16.764 10.4734C17.4579 10.8203 18.2232 11.0005 18.999 11V13C17.9663 13.0011 16.9462 12.7733 16.0121 12.3329C15.0781 11.8925 14.2532 11.2504 13.597 10.453L12.9 14.408L14.961 16.138L17.184 22.246L15.304 22.93L13.264 17.326L9.87405 14.481C9.59585 14.2564 9.38296 13.9612 9.25756 13.6264C9.13216 13.2915 9.09883 12.9291 9.16105 12.577L9.67005 9.692L8.99305 10.184L6.86605 13.112L5.24805 11.936L7.59905 8.7L7.61605 8.712ZM13.499 5.5C12.9686 5.5 12.4599 5.28929 12.0848 4.91421C11.7098 4.53914 11.499 4.03043 11.499 3.5C11.499 2.96957 11.7098 2.46086 12.0848 2.08579C12.4599 1.71071 12.9686 1.5 13.499 1.5C14.0295 1.5 14.5382 1.71071 14.9133 2.08579C15.2883 2.46086 15.499 2.96957 15.499 3.5C15.499 4.03043 15.2883 4.53914 14.9133 4.91421C14.5382 5.28929 14.0295 5.5 13.499 5.5ZM10.527 18.681L7.31305 22.511L5.78105 21.226L8.75705 17.68L9.50305 15.5L11.294 17L10.527 18.681Z" fill="#0E1529"/>
</g>
<defs>
<clipPath id="clip0_2645_3573">
<rect width="24" height="24" fill="white"/>
</clipPath>
</defs>
</svg>
