<svg width="19" height="19" viewBox="0 0 19 19" fill="none" xmlns="http://www.w3.org/2000/svg">
<g clip-path="url(#clip0_2780_22)">
<path d="M9.50065 1.5835C13.873 1.5835 17.4173 5.12779 17.4173 9.50016C17.4173 13.8725 13.873 17.4168 9.50065 17.4168C5.12828 17.4168 1.58398 13.8725 1.58398 9.50016H3.16732C3.16732 12.9977 6.00307 15.8335 9.50065 15.8335C12.9982 15.8335 15.834 12.9977 15.834 9.50016C15.834 6.00258 12.9982 3.16683 9.50065 3.16683C7.32357 3.16683 5.40298 4.26487 4.26378 5.93766H6.33398V7.521H1.58398V2.771H3.16732V4.75016C4.61132 2.82641 6.91111 1.5835 9.50065 1.5835ZM10.2923 5.54183V9.17162L12.8597 11.739L11.7395 12.8592L8.70898 9.82712V5.54183H10.2923Z" fill="#0E1529"/>
</g>
<defs>
<clipPath id="clip0_2780_22">
<rect width="19" height="19" fill="white"/>
</clipPath>
</defs>
</svg>
