<svg width="70" height="70" viewBox="0 0 70 70" fill="none" xmlns="http://www.w3.org/2000/svg">
<g clip-path="url(#clip0_3305_106)">
<path d="M34.9994 0C15.67 0 0 15.6703 0 34.9997C0 54.3283 15.6698 70 34.9989 70C54.3281 70 69.9995 54.3283 69.9995 34.9997C69.9995 15.6703 54.3283 0 34.9994 0ZM48.2022 48.3394C46.8048 49.7357 44.541 49.7357 43.1448 48.3394L35.1807 40.3754L26.8541 48.702C25.4573 50.0983 23.1933 50.0983 21.7973 48.702C20.3999 47.3041 20.3999 45.0408 21.7973 43.6434L30.1233 35.3174L22.3711 27.5657C20.9748 26.1678 20.9748 23.9045 22.3711 22.5076C23.7678 21.1109 26.0323 21.1109 27.4292 22.5076L35.1809 30.2593L42.5708 22.869C43.9675 21.4728 46.2327 21.4723 47.6282 22.869C49.0256 24.2669 49.0256 26.5316 47.6282 27.9272L40.2391 35.317L48.2027 43.281C49.5989 44.6771 49.5996 46.9422 48.2022 48.3394Z" fill="#EB001B"/>
</g>
<defs>
<clipPath id="clip0_3305_106">
<rect width="70" height="70" fill="white"/>
</clipPath>
</defs>
</svg>
