<svg width="26" height="26" viewBox="0 0 26 26" fill="none" xmlns="http://www.w3.org/2000/svg">
<g clip-path="url(#clip0_3280_1235)">
<path d="M4.77252 15.7331L8.45802 12.0476L11.5217 15.1123L14.9418 11.6923L12.9994 9.74984H18.416V15.1665L16.4736 13.2241L11.5217 18.176L8.45802 15.1123L5.77677 17.7925C6.99381 19.6243 8.8617 20.9249 11.0019 21.4307C13.1422 21.9366 15.3947 21.6098 17.303 20.5168C19.2113 19.4237 20.6328 17.646 21.2792 15.5439C21.9256 13.4419 21.7488 11.1727 20.7845 9.19618C19.8201 7.21967 18.1405 5.68368 16.0858 4.89948C14.0312 4.11527 11.7552 4.1415 9.71923 4.97285C7.6832 5.80419 6.03938 7.37848 5.12085 9.37669C4.20233 11.3749 4.07781 13.6476 4.77252 15.7342V15.7331ZM3.10636 17.4209L3.09552 17.4101L3.09986 17.4058C2.48228 16.0191 2.16408 14.5178 2.16602 12.9998C2.16602 7.01659 7.01611 2.1665 12.9994 2.1665C18.9826 2.1665 23.8327 7.01659 23.8327 12.9998C23.8327 18.9831 18.9826 23.8332 12.9994 23.8332C8.59019 23.8332 4.79852 21.2007 3.10636 17.4209Z" fill="#EB001B"/>
</g>
<defs>
<clipPath id="clip0_3280_1235">
<rect width="26" height="26" fill="white"/>
</clipPath>
</defs>
</svg>
