<svg width="75" height="75" viewBox="0 0 75 75" fill="none" xmlns="http://www.w3.org/2000/svg">
<path d="M68.5469 18.5083C69.9503 17.1049 72.4062 13.5964 73.4588 10.4388C74.8622 7.28118 75.9147 3.42185 73.8096 1.31676C70.3012 -2.89341 59.4249 4.12355 56.9689 6.57948L48.8994 14.9998L42.935 13.5964L44.3384 12.1931C44.6893 11.4914 45.0401 10.7897 45.0401 9.73711C45.0401 8.68457 44.6892 7.98287 43.9876 7.28118L43.2859 6.57948C41.8825 5.17609 39.7774 5.17609 38.374 6.57948L33.4621 11.4914L27.4977 10.4388L28.9011 9.03542C30.3045 7.63203 30.3045 5.52694 28.9011 4.12355L27.8486 3.071C26.4452 1.66761 24.3401 1.66761 22.9367 3.071L18.0248 8.33372L11.7095 6.93033C10.3062 6.57948 8.90277 6.93033 7.85022 7.28118L3.2892 9.73711C2.23666 10.088 1.53496 11.4914 1.53496 12.8947C1.53496 14.2981 2.23666 15.3507 3.64005 16.0524L34.8655 29.7355L18.7265 46.5762C18.7265 46.927 18.3757 47.2778 18.0248 47.2778L10.657 46.927C8.55192 46.927 6.44683 47.2778 5.04344 48.3304L1.18411 50.7863C0.131568 51.1372 -0.21928 52.1897 0.131568 52.8914C0.131568 53.944 0.833264 54.6457 1.53496 54.9965L13.8146 59.9084L10.3062 63.4169C9.95531 63.7677 9.95531 64.4694 10.3062 65.1711C10.657 65.5219 11.0079 65.5219 11.0079 65.5219C11.0079 65.5219 11.7095 65.5219 11.7095 65.1711L15.218 61.6626L20.1299 73.5914C20.4807 74.2931 21.1824 74.9948 22.235 74.9948C22.235 74.9948 22.235 74.9948 22.5858 74.9948C23.2875 74.9948 23.9892 74.644 24.6909 73.9423L26.796 70.083C27.8486 68.3287 28.5502 66.5745 28.1994 64.4694L28.1994 57.1016C28.1994 56.7507 28.1994 56.3999 28.5502 56.049L45.7418 39.91L59.4249 71.1355C59.7757 72.8898 61.1791 73.5914 62.5825 73.5914C63.9859 73.5914 65.0384 72.8898 65.7401 71.8372L67.8452 67.627C68.5469 66.5745 68.5469 65.1711 68.1961 63.7677L66.7927 57.1016L72.0554 51.8389C73.4588 50.4355 73.4588 48.3304 72.0554 46.927L71.3537 46.2253C69.9503 44.8219 67.8452 44.8219 66.4418 46.2253L65.0384 47.6287L63.635 42.0151L68.5469 37.1033C69.9503 35.6999 69.9503 33.5948 68.5469 32.1914L67.8452 31.1388C66.4418 29.7354 64.3367 29.7354 62.9333 31.1388L61.5299 32.1914L60.1266 26.227L68.5469 18.5083ZM40.1282 8.33372C40.4791 7.98287 40.4791 7.98287 40.8299 7.98287C41.1808 7.98287 41.5316 7.98287 41.5316 8.33372L42.5842 9.38627C42.935 9.73712 42.935 9.73711 42.935 10.088C42.935 10.4388 42.935 10.7897 42.5842 10.7897L40.1282 12.8947L35.9181 12.1931L40.1282 8.33372ZM24.6909 4.47439C25.0418 4.12355 25.0418 4.12355 25.3926 4.12355C25.7435 4.12355 26.0943 4.12355 26.0943 4.47439L27.1469 5.52694C27.4977 5.87779 27.4977 6.57948 27.1469 6.93033L24.6909 9.73711L20.4807 8.68457L24.6909 4.47439ZM4.34174 13.5964C3.9909 13.5964 3.64005 12.8947 3.64005 12.5439C3.64005 12.1931 3.9909 11.8422 4.34174 11.4914L8.55192 9.38627C9.60446 9.03542 10.3062 9.03542 11.0079 9.03542L46.7943 16.7541L40.1282 23.771L17.674 13.5964C16.9723 13.2456 16.2706 13.5964 16.2706 14.2981C15.9197 14.9998 16.2706 15.7015 16.9723 15.7015L39.0757 25.5253L36.6198 27.9812L4.34174 13.5964ZM26.796 54.6457C26.0943 55.3474 25.7435 56.3999 25.7435 57.4524L26.0943 64.4694C26.0943 66.2236 25.7435 67.627 25.0418 69.0304L22.235 72.8898L16.9723 59.5575L21.5333 54.9965C21.8841 54.6457 21.8841 53.944 21.5333 53.2423C21.1824 52.8914 20.4807 52.8914 19.779 53.2423L15.5689 58.1541L2.23666 52.8914L6.09598 50.4355C7.49937 49.3829 8.90276 49.0321 10.3062 49.0321C10.3062 49.0321 10.3062 49.0321 10.657 49.0321L18.0248 49.3829C19.0774 49.3829 20.1299 49.0321 20.8316 48.3304L58.7232 7.98287C61.5299 5.17609 70.652 0.615067 72.7571 2.36931C73.1079 3.42185 73.1079 5.52694 71.7045 9.38627C70.3011 12.5439 68.1961 15.7015 67.1435 16.7541L26.796 54.6457ZM68.1961 47.9795C68.5469 47.6287 68.5469 47.6287 68.8978 47.6287C69.2486 47.6287 69.5994 47.6287 69.5994 47.9795L70.652 49.0321C71.0028 49.3829 71.0028 50.0846 70.652 50.4355L66.4418 54.6457L65.3893 50.4355L68.1961 47.9795ZM64.6876 32.5422C65.0384 32.1914 65.0384 32.1914 65.3893 32.1914C65.7401 32.1914 66.091 32.1914 66.091 32.5422L67.1435 33.5948C67.4944 33.9456 67.4944 34.6473 67.1435 34.9982L62.9333 39.2083L62.2316 34.9982L64.6876 32.5422ZM66.091 64.1186C66.091 64.8202 66.091 65.8728 65.7401 66.5745L63.635 70.7847C63.2842 71.1355 62.9333 71.4864 62.5825 71.4864C62.2316 71.4864 61.8808 71.1355 61.5299 70.7847L47.1452 38.5066L49.6011 36.4016L59.4249 58.505C59.7757 58.8558 60.1266 59.2067 60.4774 59.2067H60.8283C61.5299 58.8558 61.5299 58.1541 61.5299 57.8033L51.3554 34.6473L58.3723 27.9812L66.091 64.1186Z" fill="#0E1529"/>
</svg>
