<svg width="33" height="33" viewBox="0 0 33 33" fill="none" xmlns="http://www.w3.org/2000/svg">
<path d="M16.4997 25.2502C14.179 25.2502 11.9534 24.3283 10.3125 22.6873C8.67155 21.0464 7.74967 18.8208 7.74967 16.5002C7.74967 14.1795 8.67155 11.9539 10.3125 10.313C11.9534 8.67204 14.179 7.75016 16.4997 7.75016C18.8203 7.75016 21.0459 8.67204 22.6869 10.313C24.3278 11.9539 25.2497 14.1795 25.2497 16.5002C25.2497 18.8208 24.3278 21.0464 22.6869 22.6873C21.0459 24.3283 18.8203 25.2502 16.4997 25.2502ZM16.4997 22.3335C18.0468 22.3335 19.5305 21.7189 20.6245 20.625C21.7184 19.531 22.333 18.0473 22.333 16.5002C22.333 14.9531 21.7184 13.4693 20.6245 12.3754C19.5305 11.2814 18.0468 10.6668 16.4997 10.6668C14.9526 10.6668 13.4688 11.2814 12.3749 12.3754C11.2809 13.4693 10.6663 14.9531 10.6663 16.5002C10.6663 18.0473 11.2809 19.531 12.3749 20.625C13.4688 21.7189 14.9526 22.3335 16.4997 22.3335ZM15.0413 0.458496H17.958V4.8335H15.0413V0.458496ZM15.0413 28.1668H17.958V32.5418H15.0413V28.1668ZM4.12572 6.18829L6.1878 4.1262L9.28092 7.21933L7.21884 9.28141L4.12572 6.18975V6.18829ZM23.7184 25.781L25.7805 23.7189L28.8736 26.812L26.8115 28.8741L23.7184 25.781ZM26.8115 4.12475L28.8736 6.18829L25.7805 9.28141L23.7184 7.21933L26.8115 4.1262V4.12475ZM7.21884 23.7189L9.28092 25.781L6.1878 28.8741L4.12572 26.812L7.21884 23.7189ZM32.5413 15.0418V17.9585H28.1663V15.0418H32.5413ZM4.83301 15.0418V17.9585H0.458008V15.0418H4.83301Z" fill="#0E1529"/>
</svg>
