<svg width="33" height="29" viewBox="0 0 33 29" fill="none" xmlns="http://www.w3.org/2000/svg">
<path d="M13.5596 5.37906C14.1512 4.25238 14.9636 3.25635 15.9484 2.45036C16.9331 1.64436 18.0701 1.0449 19.2915 0.687711C20.5129 0.330522 21.7937 0.222917 23.0576 0.371313C24.3215 0.519709 25.5425 0.921067 26.6479 1.55146C27.7534 2.18185 28.7206 3.02837 29.4919 4.04055C30.2631 5.05273 30.8227 6.20985 31.1373 7.44291C31.4518 8.67598 31.5148 9.95976 31.3226 11.2177C31.1303 12.4757 30.6868 13.682 30.0184 14.7649C31.1881 15.8665 32 17.294 32.3489 18.8624C32.6978 20.4309 32.5676 22.068 31.9751 23.5615C31.3827 25.0551 30.3553 26.3363 29.0261 27.2391C27.6969 28.1419 26.1272 28.6247 24.5205 28.6249L12.1246 28.6234C10.5327 28.6222 8.95793 28.2953 7.49714 27.6626C6.03635 27.03 4.72048 26.1051 3.63051 24.9449C2.54054 23.7847 1.69954 22.4137 1.15927 20.9163C0.618996 19.4189 0.390881 17.8268 0.488964 16.2379C0.587047 14.6491 1.00925 13.0971 1.7296 11.6775C2.44994 10.2579 3.45318 9.00077 4.67757 7.98343C5.90196 6.96609 7.3216 6.21009 8.8491 5.76194C10.3766 5.3138 11.9797 5.183 13.5596 5.3776V5.37906ZM16.5798 6.17239C18.0365 6.77618 19.3561 7.66807 20.4595 8.79452C21.5629 9.92098 22.4273 11.2588 23.0009 12.7276C24.529 12.4347 26.1092 12.5902 27.5509 13.1753C28.2269 11.7327 28.355 10.0934 27.9114 8.5632C27.4677 7.03303 26.4826 5.71652 25.1397 4.85924C23.7968 4.00196 22.188 3.66246 20.6132 3.90408C19.0384 4.1457 17.6054 4.95194 16.5813 6.17239H16.5798ZM24.5205 25.7082C25.362 25.7081 26.1904 25.4999 26.932 25.1022C27.6736 24.7045 28.3054 24.1296 28.7711 23.4287C29.2368 22.7278 29.5219 21.9226 29.6012 21.0848C29.6805 20.2471 29.5514 19.4027 29.2254 18.6269C28.8994 17.8511 28.3867 17.1679 27.7328 16.6381C27.079 16.1084 26.3043 15.7485 25.4777 15.5906C24.6512 15.4327 23.7984 15.4815 22.9953 15.7329C22.1922 15.9842 21.4637 16.4302 20.8746 17.0311V16.9582C20.8746 15.2276 20.3614 13.5359 19.4 12.097C18.4385 10.6581 17.072 9.53654 15.4731 8.87428C13.8743 8.21201 12.1149 8.03873 10.4176 8.37635C8.72025 8.71397 7.16115 9.54733 5.93744 10.771C4.71373 11.9947 3.88037 13.5538 3.54275 15.2512C3.20513 16.9485 3.37841 18.7078 4.04068 20.3067C4.70295 21.9056 5.82445 23.2721 7.26338 24.2336C8.70231 25.195 10.394 25.7082 12.1246 25.7082H24.5205Z" fill="#0E1529"/>
</svg>
