<svg width="32" height="32" viewBox="0 0 32 32" fill="none" xmlns="http://www.w3.org/2000/svg">
<path d="M9.66699 16.5002H12.5837V19.4168H3.83366V16.5002H6.75033C6.75033 14.7696 7.2635 13.0779 8.22497 11.6389C9.18643 10.2 10.553 9.07848 12.1518 8.41622C13.7507 7.75395 15.51 7.58067 17.2074 7.91829C18.9047 8.25591 20.4638 9.08927 21.6875 10.313C22.9112 11.5367 23.7446 13.0958 24.0822 14.7931C24.4198 16.4905 24.2465 18.2498 23.5843 19.8486C22.922 21.4475 21.8005 22.8141 20.3616 23.7755C18.9226 24.737 17.2309 25.2502 15.5003 25.2502V22.3335C16.654 22.3335 17.7819 21.9914 18.7412 21.3504C19.7004 20.7094 20.4481 19.7984 20.8896 18.7325C21.3311 17.6666 21.4467 16.4937 21.2216 15.3621C20.9965 14.2306 20.4409 13.1912 19.6251 12.3754C18.8093 11.5596 17.7699 11.004 16.6384 10.7789C15.5068 10.5538 14.3339 10.6694 13.268 11.1109C12.2021 11.5524 11.2911 12.3001 10.6501 13.2593C10.0091 14.2186 9.66699 15.3464 9.66699 16.5002ZM6.75033 28.1668H19.8753V31.0835H6.75033V28.1668ZM0.916992 22.3335H12.5837V25.2502H0.916992V22.3335ZM14.042 0.458496H16.9587V4.8335H14.042V0.458496ZM3.12637 6.18829L5.18845 4.1262L8.28158 7.21933L6.21949 9.28141L3.12637 6.18975V6.18829ZM22.7191 25.781L24.7812 23.7189L27.8743 26.812L25.8122 28.8741L22.7191 25.781ZM25.8122 4.12475L27.8743 6.18829L24.7812 9.28141L22.7191 7.21933L25.8122 4.1262V4.12475ZM31.542 15.0418V17.9585H27.167V15.0418H31.542Z" fill="#0E1529"/>
</svg>
