<svg width="31" height="31" viewBox="0 0 31 31" fill="none" xmlns="http://www.w3.org/2000/svg">
<path d="M12.5837 8.20817C12.5834 10.2362 13.1871 12.2183 14.3179 13.9018C15.4488 15.5853 17.0554 16.8938 18.9329 17.6605C20.8104 18.4271 22.8738 18.6172 24.8597 18.2064C26.8457 17.7956 28.6643 16.8026 30.0837 15.354V15.4998C30.0837 23.5542 23.5547 30.0832 15.5003 30.0832C7.44595 30.0832 0.916992 23.5542 0.916992 15.4998C0.916992 7.44546 7.44595 0.916504 15.5003 0.916504H15.6462C14.675 1.86606 13.9037 3.00041 13.3777 4.25271C12.8517 5.505 12.5817 6.84991 12.5837 8.20817ZM3.83366 15.4998C3.8326 18.1029 4.70214 20.6316 6.30392 22.6835C7.9057 24.7355 10.1477 26.1927 12.6732 26.8235C15.1987 27.4543 17.8627 27.2224 20.2411 26.1646C22.6196 25.1068 24.576 23.284 25.7991 20.9861C23.6224 21.4989 21.3508 21.447 19.1999 20.8355C17.0489 20.2239 15.0898 19.0729 13.5085 17.4916C11.9273 15.9104 10.7763 13.9513 10.1647 11.8003C9.55312 9.64932 9.50127 7.37774 10.0141 5.20109C8.14679 6.19587 6.58522 7.67976 5.49653 9.4939C4.40785 11.308 3.83304 13.3841 3.83366 15.4998Z" fill="#0E1529"/>
</svg>
