<svg width="70" height="70" viewBox="0 0 70 70" fill="none" xmlns="http://www.w3.org/2000/svg">
<g clip-path="url(#clip0_2925_225)">
<path d="M65.3093 17.5003L57.1872 12.8108L52.4989 4.68998H43.1214L34.9993 0.000488281L26.8772 4.68998H17.4996L12.8102 12.8121L4.68949 17.5003V26.8779L0 35L4.68949 43.1221V52.4996L12.8116 57.1891L17.5011 65.3112H26.8786L34.9995 69.9995L43.1216 65.31H52.4991L57.1886 57.1879L65.3107 52.4984V43.1208L70.0002 34.9988L65.3107 26.8767V17.5003H65.3093ZM31.8404 49.3249C31.1878 49.9775 30.3281 50.2947 29.4721 50.2827C28.616 50.2949 27.7565 49.9775 27.1039 49.3249L16.8678 39.0888C15.5855 37.8066 15.5855 35.7264 16.8678 34.4442L19.5775 31.7344C20.8598 30.4521 22.9399 30.4521 24.2222 31.7344L29.4721 36.9843L45.7756 20.6797C47.0578 19.3974 49.138 19.3974 50.4202 20.6797L53.13 23.3895C54.4123 24.6717 54.4123 26.7519 53.13 28.0341L31.8404 49.3249Z" fill="#2A9783"/>
</g>
<defs>
<clipPath id="clip0_2925_225">
<rect width="70" height="70" fill="white"/>
</clipPath>
</defs>
</svg>
