<svg width="126" height="25" viewBox="0 0 126 25" fill="none" xmlns="http://www.w3.org/2000/svg">
<g clip-path="url(#clip0_2626_1435)">
<path d="M12.5 17.7087L6.37708 21.4482L8.04167 14.4691L2.59375 9.80241L9.74479 9.22949L12.5 2.60449L15.2552 9.22949L22.4073 9.80241L16.9583 14.4691L18.6229 21.4482L12.5 17.7087Z" fill="#FCA70E"/>
</g>
<path d="M37.8573 17.7087L31.5594 21.4482L33.2715 14.4691L27.668 9.80241L35.0233 9.22949L37.8573 2.60449L40.6912 9.22949L48.0476 9.80241L42.443 14.4691L44.1551 21.4482L37.8573 17.7087Z" fill="#FCA70E"/>
<g clip-path="url(#clip1_2626_1435)">
<path d="M63.2148 17.7087L57.0919 21.4482L58.7565 14.4691L53.3086 9.80241L60.4596 9.22949L63.2148 2.60449L65.9701 9.22949L73.1221 9.80241L67.6732 14.4691L69.3378 21.4482L63.2148 17.7087Z" fill="#FCA70E"/>
</g>
<g clip-path="url(#clip2_2626_1435)">
<path d="M88.2129 17.7087L82.09 21.4482L83.7546 14.4691L78.3066 9.80241L85.4577 9.22949L88.2129 2.60449L90.9681 9.22949L98.1202 9.80241L92.6712 14.4691L94.3358 21.4482L88.2129 17.7087Z" fill="#FCA70E"/>
</g>
<defs>
<clipPath id="clip0_2626_1435">
<rect width="25" height="25" fill="white"/>
</clipPath>
<clipPath id="clip1_2626_1435">
<rect width="25" height="25" fill="white" transform="translate(50.7148)"/>
</clipPath>
<clipPath id="clip2_2626_1435">
<rect width="25" height="25" fill="white" transform="translate(75.7129)"/>
</clipPath>
</defs>
</svg>
